<?xml version="1.0" standalone="no"?>
<!DOCTYPE svg PUBLIC "-//W3C//DTD SVG 20010904//EN"
 "http://www.w3.org/TR/2001/REC-SVG-20010904/DTD/svg10.dtd">
<svg version="1.0" xmlns="http://www.w3.org/2000/svg"
 width="864.000000pt" height="1184.000000pt" viewBox="0 0 864.000000 1184.000000"
 preserveAspectRatio="xMidYMid meet">

<g transform="translate(0.000000,1184.000000) scale(0.100000,-0.100000)"
fill="#000000" stroke="none">
<path d="M4135 9869 c-173 -23 -368 -95 -476 -177 l-60 -44 -99 12 c-208 27
-496 -6 -705 -80 -369 -131 -674 -403 -764 -682 -11 -33 -17 -37 -64 -48 -176
-41 -318 -176 -362 -345 -8 -33 -15 -72 -15 -87 0 -22 -17 -45 -73 -101 -104
-104 -154 -216 -164 -367 -11 -162 62 -357 180 -486 l61 -67 1 -96 c3 -255
145 -457 426 -605 258 -136 592 -165 787 -69 86 43 127 118 85 155 -36 31 -60
38 -92 27 -17 -6 -31 -15 -31 -21 0 -5 -26 -21 -57 -36 -55 -26 -65 -27 -208
-26 -132 1 -160 4 -238 27 -222 68 -408 204 -481 353 -27 54 -50 181 -35 190
5 3 33 -3 64 -11 108 -32 213 -18 279 37 31 25 36 35 36 72 0 31 -6 48 -22 63
-40 35 -46 35 -89 1 -37 -30 -47 -33 -103 -32 -50 1 -75 8 -136 39 -181 91
-290 282 -277 484 10 135 67 236 184 322 l52 39 -1 74 c-1 61 3 82 25 128 70
143 235 231 371 198 30 -7 59 -10 65 -6 6 4 25 27 42 52 29 43 30 46 14 64 -9
10 -30 24 -46 30 -35 15 -35 19 -8 73 88 174 279 349 495 453 201 96 389 139
614 139 126 0 161 -4 270 -30 101 -24 136 -37 185 -70 64 -43 121 -110 131
-153 11 -44 33 -62 76 -62 51 0 88 35 88 83 0 85 -103 215 -219 276 -60 32
-63 35 -45 49 45 35 168 82 260 101 334 67 680 8 907 -155 l50 -36 94 32 c82
28 106 32 197 32 323 -1 615 -206 710 -499 17 -51 18 -52 64 -58 243 -29 391
-95 534 -239 167 -168 238 -357 209 -562 -7 -47 -11 -87 -9 -88 2 -1 37 -22
78 -46 103 -60 243 -201 304 -305 69 -118 99 -226 99 -350 -1 -98 -19 -191
-38 -189 -6 0 -45 17 -89 39 -153 75 -268 42 -234 -69 10 -32 15 -36 47 -36
46 -1 129 -29 174 -60 58 -40 158 -184 179 -259 75 -264 -14 -546 -225 -712
-51 -41 -77 -49 -77 -25 0 32 -60 146 -99 186 -36 38 -44 42 -73 36 -34 -6
-88 -56 -88 -80 0 -8 16 -34 36 -58 39 -45 84 -131 84 -160 0 -25 -95 -43
-220 -42 -110 0 -158 11 -425 94 -140 44 -293 51 -493 21 -187 -27 -361 -28
-464 -2 -89 23 -154 55 -257 123 -146 99 -264 132 -393 110 -95 -17 -159 -47
-234 -111 -95 -81 -140 -178 -153 -331 l-6 -75 -50 -7 c-112 -14 -349 -8 -463
12 -362 65 -582 239 -639 503 -65 308 150 673 502 849 107 54 237 92 511 148
278 58 420 101 539 164 82 43 218 138 290 201 l40 35 -39 72 c-52 97 -54 99
-80 63 -78 -109 -181 -191 -320 -255 -120 -57 -174 -72 -476 -140 -413 -92
-496 -120 -655 -224 -359 -234 -549 -663 -443 -1004 90 -294 316 -468 716
-552 119 -25 352 -36 482 -22 110 12 110 12 135 -68 49 -153 154 -302 323
-457 222 -204 335 -323 408 -433 127 -190 227 -412 275 -605 12 -50 27 -95 33
-102 8 -9 28 -10 68 -4 32 4 61 10 64 14 15 15 -43 217 -115 397 -112 280
-272 511 -489 707 -259 234 -371 371 -423 518 -20 56 -20 60 -3 72 10 7 25 13
34 13 30 0 157 47 242 90 104 53 198 119 265 187 l53 54 48 -25 c138 -70 326
-102 508 -86 63 6 156 17 207 26 64 11 128 15 212 11 103 -4 137 -9 235 -41
231 -73 298 -88 425 -93 82 -3 142 0 188 10 84 17 82 19 74 -101 -21 -283
-206 -556 -469 -688 -128 -65 -223 -86 -408 -91 -142 -4 -178 -2 -259 16 -234
52 -402 191 -494 409 -30 71 -57 168 -57 205 0 32 -24 41 -80 28 -66 -15 -74
-28 -60 -97 35 -177 140 -394 238 -492 44 -44 125 -102 142 -102 42 0 185
-515 227 -818 l17 -123 71 3 70 3 -3 55 c-7 144 -84 497 -149 688 -19 57 -32
106 -29 109 3 4 50 -2 103 -13 139 -27 374 -25 499 3 377 87 650 345 760 718
21 72 27 119 31 234 l6 144 30 16 c111 60 238 193 296 308 74 147 96 242 95
403 -1 159 -28 262 -99 375 l-31 50 18 54 c114 328 21 664 -258 936 -34 33
-85 74 -113 90 l-51 30 0 95 c-1 304 -178 586 -470 747 -92 50 -200 86 -323
107 -34 6 -40 12 -66 70 -78 173 -249 338 -435 420 -181 80 -411 105 -576 62
-54 -14 -55 -14 -120 18 -77 39 -214 87 -331 117 -66 17 -122 22 -264 24 -99
2 -211 -1 -250 -6z m701 -3693 l59 -28 -66 -61 c-37 -34 -92 -77 -122 -95 -71
-43 -223 -108 -270 -117 l-37 -7 1 43 c1 110 99 245 206 285 57 22 158 12 229
-20z"/>
<path d="M2805 8448 c-8 -13 -27 -59 -42 -103 -22 -69 -26 -98 -27 -205 0
-143 13 -203 76 -340 59 -129 150 -239 250 -304 15 -10 31 -15 35 -13 4 3 21
29 36 59 l28 53 -88 90 c-100 103 -141 176 -175 308 -27 107 -21 229 17 342
14 43 24 84 21 91 -6 15 -69 44 -97 44 -10 0 -25 -10 -34 -22z"/>
<path d="M6485 6933 c-31 -145 -70 -227 -150 -312 -116 -123 -250 -182 -415
-183 -191 -2 -359 83 -461 233 -22 32 -44 59 -50 59 -14 0 -71 -29 -91 -48
-25 -21 -23 -36 17 -97 105 -164 277 -268 495 -297 368 -49 731 215 793 578
15 88 10 94 -67 94 -63 0 -66 -1 -71 -27z"/>
<path d="M2983 2462 l-33 -3 0 -817 0 -817 423 1 c406 0 425 1 507 23 252 67
362 213 348 462 -10 174 -92 279 -270 348 -16 6 -28 14 -28 18 0 5 25 21 55
37 59 30 119 94 154 163 30 60 44 169 31 250 -30 184 -161 302 -367 329 -55 7
-753 12 -820 6z m752 -253 c26 -7 63 -28 89 -50 37 -32 47 -49 57 -94 26 -115
-29 -225 -129 -260 -35 -12 -101 -18 -253 -22 -113 -3 -218 -3 -232 1 l-27 6
0 209 c0 114 3 211 7 214 11 12 441 8 488 -4z m45 -669 c173 -55 214 -319 65
-422 -63 -43 -117 -50 -370 -46 l-230 3 -3 237 c-2 219 -1 237 15 241 10 3
122 4 248 3 166 -2 242 -6 275 -16z"/>
<path d="M4510 1645 l0 -815 23 -5 c12 -3 261 -4 552 -2 l530 2 3 122 3 123
-411 0 -410 0 0 679 c0 374 -3 686 -6 695 -5 14 -28 16 -145 16 l-139 0 0
-815z"/>
</g>
</svg>
